<svg width="200" height="39" viewBox="0 0 200 39" fill="none" xmlns="http://www.w3.org/2000/svg">
<path d="M16.6641 7.91406C11.7921 7.91406 8.03724 9.9001 6.23739 13.9653H6.0512C6.17533 11.6689 6.23739 10.0863 6.23739 8.5347H0V38.3873H6.76493V22.6542C6.76493 17.565 10.2715 13.9032 15.1125 13.9032C19.9845 13.9032 22.3429 17.0995 22.3429 22.1887V38.3873H29.1078V21.5681C29.1078 12.755 24.7013 7.91406 16.6641 7.91406Z" fill="#E0684B"/>
<path d="M50.117 7.85156C40.342 7.85156 33.9805 14.5544 33.9805 23.5537C33.9805 32.4288 40.0937 39.0075 49.6205 39.0075C59.3955 39.0075 65.695 32.3046 65.695 23.3054C65.695 14.4303 59.6748 7.85156 50.117 7.85156ZM49.8067 33.0494C44.3141 33.0494 40.7454 28.7049 40.7454 23.3364C40.7454 18.1541 44.3141 13.8407 49.9308 13.8407C55.4234 13.8407 58.9921 18.1852 58.9921 23.5537C58.9921 28.767 55.4234 33.0494 49.8067 33.0494Z" fill="#E0684B"/>
<path d="M84.2826 32.9248C81.4276 32.9248 80.1243 31.218 80.1243 27.9597V14.1505H88.6891V8.53375H80.1243V0L73.4214 0.713732V8.50272H67.8047V14.1195H73.4214V28.1459C73.4214 35.097 76.928 38.7898 83.1965 38.7898C85.679 38.7898 87.603 38.3553 89.8993 37.3313L88.0374 31.9628C86.8272 32.5524 85.4928 32.9248 84.2826 32.9248Z" fill="#E0684B"/>
<path d="M106.563 7.85156C97.3776 7.85156 90.7988 14.12 90.7988 23.4295C90.7988 32.9873 97.1293 39.0075 106.439 39.0075C110.907 39.0075 116.059 37.6111 119.131 34.3527L115.935 29.8842C113.142 32.3046 109.542 33.2046 106.687 33.2046C101.722 33.2046 98.0603 30.3496 97.6258 25.819H120.465C120.527 24.9811 120.589 24.0812 120.589 23.0882C120.589 12.9408 114.6 7.85156 106.563 7.85156ZM97.6879 20.7298C98.5257 15.9509 101.908 13.6545 106.315 13.6545C110.659 13.6545 113.855 16.0129 114.166 20.7298H97.6879Z" fill="#E0684B"/>
<path d="M132.04 13.4072H131.916C132.04 11.6694 132.102 10.0868 132.102 8.50417H125.834V38.3568H132.599V22.9029C132.599 17.4724 135.671 14.0278 140.326 14.0278C141.412 14.0278 142.374 14.152 143.274 14.5243L145.012 8.5352C143.801 8.10075 142.343 7.94559 140.978 7.94559C136.447 7.91456 133.251 10.4592 132.04 13.4072Z" fill="#E0684B"/>
<path d="M154.943 13.4072H154.819C154.943 11.6694 155.005 10.0868 155.005 8.50417H148.736V38.3568H155.501V22.9029C155.501 17.4724 158.573 14.0278 163.228 14.0278C164.314 14.0278 165.276 14.152 166.176 14.5243L167.914 8.5352C166.704 8.10075 165.245 7.94559 163.88 7.94559C159.349 7.91456 156.153 10.4592 154.943 13.4072Z" fill="#E0684B"/>
<path d="M189.79 8.87306C181.753 5.95607 172.846 10.0833 169.898 18.1516C166.981 26.1888 171.109 35.0949 179.177 38.043C187.214 40.9599 196.12 36.8327 199.068 28.7644C201.985 20.6962 197.858 11.79 189.79 8.87306ZM193.234 26.6233C191.466 31.4642 186.128 33.9468 181.318 32.1779C176.477 30.4091 173.995 25.0717 175.763 20.2617C177.532 15.4208 182.87 12.9382 187.68 14.707C192.49 16.4448 195.003 21.7823 193.234 26.6233Z" fill="#E0684B"/>
<path opacity="0.5" d="M182.219 29.6978C185.663 30.9391 189.48 29.1703 190.753 25.7257C187.122 24.3914 182.033 22.5605 178.247 21.1641C176.974 24.6086 178.774 28.4255 182.219 29.6978Z" fill="#E0684B"/>
</svg>
